# xmcd CD database file
# Copyright (C) 1993-1998 Ti Kan
#
# Track frame offsets:
# 150
# 16857
# 37832
# 60562
# 79860
# 97955
# 118245
# 135620
# 154225
# 175367
#
# Disc length: 2602 seconds
# Revision: 1
# Processed by: cddbd v1.4b41PL1 Copyright (c) Steve Scherf et al.
# Submitted via: CDSpectrumPro v3.4.340
#
DISCID=780a280a
DTITLE=Roland - Quit Falling In Love
DYEAR=1900
DGENRE=
TTITLE0=Quit Falling In Love
TTITLE1=Don't Cry My Love
TTITLE2=Can't Put You Down
TTITLE3=Live for Love
TTITLE4=Together ever
TTITLE5=Still Last of End
TTITLE6=Love of First Sight
TTITLE7=Your Eyes Like Stars
TTITLE8=Is You
TTITLE9=Day by Day
EXTD=
EXTT0=
EXTT1=
EXTT2=
EXTT3=
EXTT4=
EXTT5=
EXTT6=
EXTT7=
EXTT8=
EXTT9=
PLAYORDER=
